<?xml version="1.0" encoding="iso-8859-1"?>
<!-- Generator: Adobe Illustrator 19.0.0, SVG Export Plug-In . SVG Version: 6.00 Build 0)  -->
<svg version="1.1" id="Layer_1" xmlns="http://www.w3.org/2000/svg" xmlns:xlink="http://www.w3.org/1999/xlink" x="0px" y="0px"
	 viewBox="0 0 512 512" style="enable-background:new 0 0 512 512" xml:space="preserve">
<style type="text/css">
	.st0{fill:#f2eecb;}
</style>
			<path class="st0" d="M117.333,85.333h192c5.888,0,10.667-4.779,10.667-10.667V53.333c0-17.643-14.357-32-32-32h-37.845
				C242.603,8.32,228.629,0,213.333,0c-15.296,0-29.269,8.32-36.821,21.333h-37.845c-17.643,0-32,14.357-32,32v21.333
				C106.667,80.555,111.445,85.333,117.333,85.333z"/>
			<path class="st0" d="M446.613,444.885l-32.021-8l-1.344-5.355c8.32-9.173,14.208-20.885,16.661-33.045c5.696-2.944,9.813-8.533,10.667-15.253
				l2.304-18.56c0.704-5.632-1.024-11.307-4.757-15.573c-1.152-1.323-2.453-2.453-3.883-3.435l0.533-11.328l1.941-1.941
				c5.504-5.845,12.928-18.325,1.173-36.331c-5.547-8.533-17.067-18.731-40.149-18.731c-6.784,0-22.123,0-37.013,9.344
				c-43.904,1.536-49.067,25.195-49.067,43.072c0,3.52,0.619,10.112,1.237,15.616c-1.579,1.003-3.051,2.24-4.288,3.669
				c-3.797,4.309-5.547,10.005-4.821,15.659l2.304,18.56c0.875,6.933,5.291,12.693,11.776,15.531
				c2.389,11.627,7.979,22.891,15.765,31.829l-1.557,6.272l-32.021,8C274.133,451.371,256,474.581,256,501.333
				c0,5.888,4.779,10.667,10.667,10.667H480c5.888,0,10.667-4.8,10.667-10.688C490.667,474.581,472.533,451.371,446.613,444.885z"/>
			<path class="st0" d="M283.349,428.331c1.941-0.811,3.584-2.176,4.757-3.925l4.843-7.253c2.496-3.733,2.368-8.64-0.299-12.245
				c-4.267-5.781-6.869-12.16-7.723-18.987l-2.304-18.645c-1.237-9.493,0.981-19.179,6.165-27.307
				c1.237-1.899,1.813-4.16,1.664-6.421c-0.085-1.387-0.128-2.688-0.128-3.819c0-21.76,8.085-58.987,62.208-63.915
				c1.323-0.128,2.581-0.469,3.755-1.045c17.195-8.448,33.216-8.64,38.485-8.704c3.52-0.043,6.848-1.877,8.789-4.821
				c1.152-1.749,1.771-3.797,1.771-5.909V74.667c0-17.643-14.357-32-32-32H352c-5.888,0-10.667,4.779-10.667,10.667v21.333
				c0,17.643-14.357,32-32,32h-192c-17.643,0-32-14.357-32-32V53.333c0-5.888-4.779-10.667-10.667-10.667H53.333
				c-17.643,0-32,14.357-32,32V480c0,17.643,14.357,32,32,32H224c5.888,0,10.667-4.779,10.667-10.667
				C234.667,469.419,253.781,440.768,283.349,428.331z"/>
</svg>
